<?xml version="1.0" encoding="UTF-8"?>
<svg width="164px" height="164px" viewBox="0 0 164 164" version="1.1" xmlns="http://www.w3.org/2000/svg" xmlns:xlink="http://www.w3.org/1999/xlink">
    <!-- Generator: Sketch 49 (51002) - http://www.bohemiancoding.com/sketch -->
    <title>Icon</title>
    <desc>Created with Sketch.</desc>
    <defs></defs>
    <g id="Page-1" stroke="none" stroke-width="1" fill="none" fill-rule="evenodd">
        <g id="Desktop-HD" transform="translate(-642.000000, -287.000000)">
            <g id="Icon" transform="translate(645.000000, 290.000000)">
                <circle id="Oval" stroke="#BFF2EA" stroke-width="5" fill="#FFFFFF" cx="79" cy="79" r="79"></circle>
                <path d="M32,78.4691013 C32,53.3724013 52.6504903,33.0003013 77.9999403,33.0003013 C79.081848,32.9850004 80.0881844,33.5534272 80.6336035,34.4879198 C81.1790225,35.4224125 81.1790225,36.5781901 80.6336035,37.5126827 C80.0881844,38.4471754 79.081848,39.0156022 77.9999403,39.0003013 C55.8531103,39.0003013 38,56.6555013 38,78.4691013 C38,93.9286013 46.9278903,107.410001 60.0000003,113.906501 L60.0000003,102.000301 C59.9846994,100.918394 60.5531262,99.9120572 61.4876188,99.3666381 C62.4221115,98.8212191 63.5778891,98.8212191 64.5123818,99.3666381 C65.4468744,99.9120572 66.0153012,100.918394 66.0000003,102.000301 L66.0000003,120.000301 C65.9998346,121.657087 64.6567859,123.000136 63.0000003,123.000301 L45.0000003,123.000301 C44.1881614,123.01718 43.4041494,122.704275 42.8270269,122.133051 C42.2499045,121.561827 41.9289619,120.781071 41.9375003,119.969101 C41.9457389,119.167954 42.2740617,118.40338 42.8493205,117.845721 C43.4245794,117.288063 44.1989833,116.983649 45.0000003,117.000301 L53.3437503,117.000301 C40.4952403,108.904301 32,94.6192013 32,78.4691013 Z M74.9374503,121.969101 C74.9456889,121.167955 75.2740103,120.403383 75.849267,119.845725 C76.4245237,119.288067 77.198925,118.983652 77.9999403,119.000301 C100.14704,119.000301 118.00004,101.345101 118.00004,79.5315013 C118.00004,64.0479013 109.04684,50.5476013 95.9375403,44.0628013 L95.9375403,56.0003013 C95.9528412,57.082209 95.3844144,58.0885454 94.4499218,58.6339645 C93.5154291,59.1793835 92.3596515,59.1793835 91.4251588,58.6339645 C90.4906662,58.0885454 89.9222394,57.082209 89.9375403,56.0003013 L89.9375403,38.0003013 C89.937706,36.3435157 91.2807547,35.0004669 92.9375403,35.0003013 L110.93754,35.0003013 C111.738557,34.9836493 112.512961,35.2880631 113.08822,35.8457213 C113.663479,36.4033796 113.991802,37.1679536 114.00004,37.9691013 C114.008579,38.7810707 113.687636,39.561827 113.110514,40.133051 C112.533391,40.7042751 111.749379,41.0171803 110.93754,41.0003013 L102.65624,41.0003013 C115.51154,49.0964013 124.00004,63.3816013 124.00004,79.5315013 C124.00004,104.628201 103.34964,125.000301 77.9999403,125.000301 C77.1881031,125.017178 76.4040938,124.704271 75.8269735,124.133047 C75.2498532,123.561824 74.928912,122.781069 74.9374503,121.969101 Z" id="Shape" fill="#80F2DF" fill-rule="nonzero" transform="translate(78.000020, 79.000475) rotate(-69.000000) translate(-78.000020, -79.000475) "></path>
            </g>
        </g>
    </g>
</svg>